<svg xmlns="http://www.w3.org/2000/svg" width="461.8" height="461.8" viewBox="190 7.2 461.8 461.8"><path d="M583.9 355.7l-45.4 45.4 58.5 58.5c12.5 12.5 32.9 12.5 45.4 0s12.5-32.9 0-45.4l-58.5-58.5zM231.3 48.4c-60.3 60.3-53.7 164.8 14.6 233.1 33.8 33.8 76.4 52.4 118.2 55.4 0 0 2.4.1 3.3.2 18.6.8 122.7 15.6 137.1 30.1l13.2 13.2 45.4-45.4-13.2-13.2c-14.5-14.4-29.3-118.5-30.1-137.1 0-.9-.2-3.3-.2-3.3-3-41.8-21.6-84.5-55.4-118.2-68.1-68.4-172.7-75-232.9-14.8zm210.8 37c6.6 6.6 12.4 13.5 17.6 20.8l-14.2 14.2-28.3-28.2 15.4-15.4c3.3 2.7 6.4 5.5 9.5 8.6zM456 273.1c-4.9 4.9-10.3 9.1-15.9 12.9l-22.9-22.9 28.3-28.3 23 23c-3.8 5.4-7.8 10.6-12.5 15.3zm-224.3-81l28.3 28.3-12.8 12.8c-8-12.2-14.1-25.1-18.3-38.2l2.8-2.9zm36.5 67.1c-3.1-3.1-5.9-6.2-8.7-9.5l14.9-14.9 28.2 28.3-13.6 13.7c-7.2-5.2-14.2-11-20.8-17.6zm63.5 3.9l28.3-28.2 28.2 28.2-28.2 28.3-28.3-28.3zm-14.5-14.5l-28.3-28.3 28.3-28.2 28.3 28.3-28.3 28.2zm-42.8-42.7l-28.2-28.3 28.2-28.2 28.3 28.2-28.3 28.3zM388.2 92.1L360 120.3l-28.3-28.2L360 63.9l28.2 28.2zm14.5 14.5l28.2 28.3-28.2 28.2-28.3-28.2 28.3-28.3zM360 205.9l-28.3-28.3 28.2-28.3 28.3 28.3-28.2 28.3zm70.9 14.5l-28.2 28.3-28.3-28.3 28.2-28.2 28.3 28.2zm-85.5-85.5l-28.3 28.2-28.3-28.2 28.3-28.2 28.3 28.2zm71.8 42.7l28.2-28.3 28.3 28.2-28.3 28.3-28.2-28.2zM416 64.3l-13.3 13.3-28.3-28.3 3.3-3.3c13.3 4.2 26.1 10.3 38.3 18.3zm-80.6-25l10 10.1-28.2 28.2-28.9-28.9c14.7-6.2 30.6-9.4 47.1-9.4zm-81 32.2c4.7-4.7 9.9-8.8 15.3-12.5l33.1 33.1-28.2 28.2-33-33c3.6-5.5 7.8-10.9 12.8-15.8zm-23.1 34.7l28.6 28.6-28.2 28.2-9.5-9.5c-.1-16.4 2.9-32.5 9.1-47.3zM307 287.8l10.2-10.2 23.3 23.4c-11.4-2.9-22.6-7.4-33.5-13.2zm68 17.5l27.7-27.7 18.5 18.5c-14.4 6.1-30.1 9.2-46.2 9.2zm145.2 32.1l-68.3-15.9s15.1-6.5 30.5-21.9c15.5-15.5 21.9-30.5 21.9-30.5l15.9 68.3zm-41.5-98.3L460 220.4l28.2-28.2c-.1 16.4-3.2 32.3-9.5 46.9zm5.4-80L460 134.9l10.8-10.7c5.9 11.3 10.4 23 13.3 34.9z"/></svg>