<svg xmlns="http://www.w3.org/2000/svg" xmlns:xlink="http://www.w3.org/1999/xlink" width="761.9" height="761.9"><defs><circle id="a" cx="381" cy="381" r="381"/></defs><clipPath id="b"><use xlink:href="#a" overflow="visible"/></clipPath><path clip-path="url(#b)" stroke="#000" stroke-linejoin="round" d="M403.8 259c50.8 10.2 101.6 26.7 152.4 49.5 27.9-40.6 50.8-76.2 68.6-106.7-35.6-53.3-69.8-90.2-102.9-110.5-50.8 2.5-96.5 12.7-137.1 30.5 7.6 43.3 13.9 89 19 137.2M281.9 373.3c-48.3-15.2-94-26.7-137.1-34.3-30.5 40.6-48.3 82.5-53.3 125.7 17.8 45.7 50.8 86.3 99 121.9 45.7-17.8 87.6-36.8 125.7-57.1-15.2-60.9-26.7-113-34.3-156.2M590.5 472.4c-35.6 43.2-74.9 78.7-118.1 106.7 10.2 33 19 67.3 26.7 102.9 61-2.5 107.9-17.8 141-45.7 25.4-43.2 40.6-83.8 45.7-121.9-38.2-17.9-69.9-31.9-95.3-42M19 464.8C1.3 439.4-7.6 401.3-7.6 350.5v335.2h64.8C31.7 596.8 19 523.2 19 464.8M761.9 171.4L712.4 240c27.9 68.6 40.6 121.9 38.1 160l11.4 3.8M381 838.1l-11.4-95.2c-55.9-5.1-105.4-21.6-148.6-49.5-20.3 5.1-43.2 3.8-68.6-3.8M0 4.3l38.1 193.8c25.4-10.2 53.3-11.4 83.8-3.8 40.6-55.9 82.5-91.4 125.7-106.7 0-58.4-6.3-87.6-19-87.6H0"/><path clip-path="url(#b)" fill="none" stroke="#000" stroke-linejoin="round" d="M403.8 259c-61 50.8-101.6 88.9-121.9 114.3m274.3-64.7c20.3 61 31.7 115.6 34.3 163.8m34.3-270.5c33 7.6 62.2 20.3 87.6 38.1M521.9 91.4c5.1-35.6 3.8-66-3.8-91.4M384.8 121.9C349.2 99 303.5 87.6 247.6 87.6M144.8 339c-12.7-35.6-20.3-83.8-22.9-144.8M91.4 464.8c-22.9 5.1-47 5.1-72.4 0m171.5 121.9c2.5 40.6 12.7 76.2 30.5 106.7m95.2-163.9c43.2 22.9 95.2 39.4 156.2 49.5M499 681.9c-27.9 33-71.1 53.3-129.5 61M640 636.2l45.7 49.5m0-171.4c25.4-25.4 47-63.5 64.8-114.3"/></svg>
